<?xml version="1.0" standalone="no"?>
<!DOCTYPE svg PUBLIC "-//W3C//DTD SVG 20010904//EN"
 "http://www.w3.org/TR/2001/REC-SVG-20010904/DTD/svg10.dtd">
<svg version="1.0" xmlns="http://www.w3.org/2000/svg"
 width="540.000000pt" height="540.000000pt" viewBox="0 0 540.000000 540.000000"
 preserveAspectRatio="xMidYMid meet">
<metadata>
Created by potrace 1.14, written by Peter Selinger 2001-2017
</metadata>
<g transform="translate(0.000000,540.000000) scale(0.100000,-0.100000)"
fill="#000000" stroke="none">
<path d="M2480 5084 c0 -5 -12 -10 -27 -11 -24 -1 -80 -7 -158 -16 -11 -1 -24
-5 -30 -8 -5 -4 -18 -5 -27 -4 -10 2 -18 0 -18 -3 0 -4 -12 -8 -27 -9 -41 -2
-76 -9 -95 -17 -9 -4 -25 -9 -35 -11 -10 -2 -20 -4 -23 -6 -3 -1 -9 -3 -15 -4
-9 -2 -19 -5 -62 -22 -10 -3 -21 -7 -25 -8 -5 -2 -11 -4 -15 -5 -5 -1 -11 -2
-15 -1 -5 0 -8 -3 -8 -9 0 -5 -6 -7 -14 -4 -7 3 -20 -1 -27 -8 -8 -7 -21 -13
-29 -13 -8 1 -20 -3 -26 -7 -7 -5 -23 -11 -35 -13 -13 -3 -25 -9 -27 -14 -2
-6 -10 -7 -18 -4 -8 3 -14 0 -14 -6 0 -6 -7 -11 -15 -11 -8 0 -15 -4 -15 -10
0 -5 -3 -9 -7 -8 -8 3 -124 -51 -133 -61 -3 -3 -18 -13 -35 -21 -16 -8 -33
-19 -37 -25 -4 -5 -8 -6 -8 -2 0 5 -7 2 -15 -5 -33 -30 -45 -38 -54 -38 -5 0
-16 -6 -23 -12 -8 -7 -21 -17 -29 -23 -71 -45 -104 -69 -107 -76 -2 -5 -10 -9
-18 -9 -9 0 -12 -4 -9 -10 3 -5 1 -10 -5 -10 -5 0 -23 -12 -39 -27 -48 -46
-71 -63 -81 -63 -6 0 -10 -5 -10 -10 0 -13 -138 -150 -151 -150 -6 0 -8 -4 -5
-8 3 -5 -13 -27 -34 -50 -22 -23 -40 -44 -40 -47 0 -3 -12 -17 -26 -30 -15
-14 -23 -25 -19 -25 4 0 -2 -9 -15 -20 -13 -11 -19 -20 -15 -20 4 0 -1 -8 -11
-17 -11 -10 -25 -30 -33 -45 -8 -16 -18 -28 -23 -28 -4 0 -8 -7 -8 -15 0 -8
-4 -15 -8 -15 -4 0 -13 -12 -20 -27 -20 -45 -44 -87 -59 -101 -12 -13 -17 -27
-14 -44 0 -5 -3 -8 -8 -8 -9 0 -46 -79 -43 -92 1 -5 -2 -8 -7 -8 -8 0 -23 -37
-25 -63 -1 -4 -7 -11 -14 -16 -8 -5 -14 -12 -13 -17 1 -22 -12 -54 -23 -54 -6
0 -4 -5 4 -10 8 -5 10 -10 5 -10 -10 0 -39 -81 -35 -96 1 -4 -3 -10 -9 -13 -6
-4 -12 -20 -14 -37 -2 -16 -7 -36 -12 -44 -5 -8 -10 -21 -11 -30 -4 -21 -10
-42 -19 -62 -4 -10 -5 -25 -2 -33 4 -8 2 -17 -4 -21 -6 -3 -8 -12 -5 -20 3 -7
2 -16 -3 -18 -4 -3 -7 -18 -6 -33 1 -15 -6 -34 -14 -41 -9 -8 -11 -11 -4 -8 9
5 10 -4 6 -31 -3 -21 -10 -40 -15 -41 -4 -2 -5 -8 -2 -13 10 -17 12 -59 2 -59
-6 0 -8 -6 -5 -14 3 -8 1 -17 -6 -20 -8 -3 -8 -5 -1 -5 8 -1 9 -14 4 -40 -4
-22 -7 -56 -6 -75 1 -20 -3 -36 -7 -36 -4 0 -4 -8 2 -17 5 -10 5 -26 0 -40 -5
-14 -5 -23 1 -23 5 0 7 -14 5 -30 -2 -17 0 -43 5 -60 6 -20 5 -30 -3 -34 -7
-2 -7 -5 -2 -5 6 -1 10 -18 9 -38 -1 -21 1 -42 5 -48 9 -13 7 -37 -3 -54 -6
-10 -5 -12 2 -7 12 7 17 -23 13 -66 -1 -10 3 -18 9 -18 7 0 9 -7 6 -16 -3 -8
-2 -34 4 -57 17 -78 21 -102 22 -117 0 -8 4 -19 8 -25 5 -5 10 -23 11 -40 2
-16 7 -32 11 -35 3 -3 8 -19 10 -35 2 -17 7 -33 11 -36 5 -3 10 -12 11 -20 2
-8 8 -27 15 -42 6 -16 9 -33 5 -38 -3 -5 0 -9 5 -9 6 0 11 -8 11 -17 0 -10 7
-27 15 -37 8 -10 12 -23 9 -27 -3 -5 0 -9 5 -9 6 0 10 -3 9 -7 -4 -14 13 -53
23 -53 5 0 8 -3 7 -7 -4 -15 13 -53 23 -53 6 0 8 -4 5 -9 -3 -4 1 -17 9 -27 8
-10 15 -24 15 -31 0 -14 59 -104 74 -115 6 -4 7 -8 2 -8 -5 0 -3 -7 4 -15 7
-8 9 -15 4 -15 -4 0 2 -9 14 -20 12 -12 22 -24 22 -29 0 -7 11 -22 50 -68 5
-7 10 -17 10 -22 0 -6 9 -16 20 -23 11 -7 20 -17 20 -22 0 -5 8 -15 17 -23 11
-9 12 -12 3 -7 -8 3 3 -11 26 -33 22 -22 43 -47 47 -56 4 -10 11 -17 17 -17 6
0 8 -4 5 -10 -3 -5 -2 -10 4 -10 13 0 81 -67 81 -80 0 -6 4 -9 9 -5 5 3 12 -4
16 -15 3 -11 11 -20 17 -20 6 0 24 -13 39 -30 16 -16 32 -31 37 -32 4 -2 6 -6
5 -10 -2 -4 7 -10 18 -13 11 -4 36 -22 55 -40 19 -19 38 -34 42 -34 7 0 51
-34 78 -59 8 -7 14 -10 14 -5 0 4 4 3 8 -2 4 -6 23 -22 42 -35 19 -13 38 -28
41 -33 3 -5 10 -9 15 -9 16 -1 39 -12 52 -25 7 -7 20 -13 28 -13 8 0 14 -4 14
-10 0 -5 7 -10 15 -10 8 0 15 -5 15 -11 0 -5 4 -7 10 -4 5 3 10 1 10 -5 0 -7
7 -10 15 -6 8 3 15 2 15 -2 0 -11 166 -87 183 -84 4 1 7 -3 7 -9 0 -6 7 -9 15
-5 8 3 15 1 15 -4 0 -6 8 -10 18 -10 10 0 23 -5 30 -12 7 -7 12 -9 12 -5 0 4
10 2 23 -5 12 -7 25 -11 29 -10 4 1 28 -7 53 -18 26 -11 51 -18 55 -15 5 3 12
0 15 -6 4 -5 13 -8 21 -5 8 3 14 1 14 -4 0 -5 9 -7 20 -5 11 2 20 0 20 -6 0
-5 3 -8 8 -7 4 1 32 -2 62 -7 30 -5 67 -9 82 -10 14 -1 33 -7 42 -14 9 -8 16
-9 16 -4 0 5 7 10 15 10 8 0 15 -5 15 -10 0 -5 6 -4 14 2 8 7 17 8 20 3 2 -4
24 -9 48 -11 47 -2 107 -8 123 -11 6 -1 12 -1 15 0 16 6 50 6 50 -1 0 -4 13
-4 29 1 15 4 34 4 42 -1 8 -4 16 -4 20 2 4 6 15 6 32 0 19 -7 27 -7 27 0 0 6
9 8 19 4 11 -3 22 -1 25 4 4 5 16 7 29 5 12 -3 28 -5 35 -5 43 4 52 6 52 11 0
3 18 5 40 4 22 0 40 2 40 5 0 3 10 7 23 7 26 2 81 10 122 19 17 3 42 6 58 7
15 0 27 4 27 9 0 5 6 6 14 3 8 -3 17 -1 20 5 4 6 13 8 21 4 9 -3 21 0 29 6 7
6 16 8 19 4 4 -3 7 -2 7 3 0 9 14 13 58 16 6 1 12 6 12 11 0 6 3 7 7 4 3 -4
17 0 30 8 13 9 23 12 23 8 0 -5 5 -1 10 7 7 11 10 12 10 2 0 -10 4 -10 16 2 8
9 24 16 34 16 10 0 22 5 25 10 4 6 11 8 16 5 5 -4 9 -1 9 4 0 6 6 11 14 11 8
0 27 6 43 14 15 8 46 23 68 33 22 10 42 21 43 26 2 4 10 7 19 7 8 0 21 7 30
15 8 8 19 13 24 10 5 -4 9 -2 9 3 0 5 18 17 40 27 22 10 37 21 35 25 -4 7 23
18 42 18 3 0 10 7 15 16 5 9 16 16 23 16 8 0 15 5 15 10 0 6 5 10 11 10 7 0
20 10 30 22 11 11 19 18 19 14 0 -7 14 4 60 46 16 14 31 23 34 20 3 -3 6 0 6
7 0 7 5 9 10 6 6 -3 10 1 10 9 0 9 4 16 10 16 5 0 31 20 57 45 25 25 50 45 55
45 4 0 8 4 8 9 0 5 34 45 76 88 116 119 119 123 111 123 -4 0 -2 6 5 14 7 8
16 12 21 9 4 -2 7 2 7 10 0 8 10 25 23 39 42 48 57 68 57 79 0 5 4 7 10 4 5
-3 7 0 4 8 -3 8 2 17 10 20 9 4 16 13 16 21 0 8 5 16 10 18 6 2 12 13 13 25 0
12 4 20 8 17 6 -4 11 4 20 31 1 6 11 19 21 29 10 11 19 23 19 28 1 4 2 14 3
21 1 6 8 11 15 9 7 -1 10 2 7 7 -3 5 5 29 19 55 13 25 22 46 19 46 -2 0 3 11
12 25 9 14 13 25 10 25 -4 0 -2 6 4 13 16 18 58 107 48 101 -4 -3 -8 0 -8 5 0
6 4 11 9 11 8 0 18 24 27 64 3 11 9 25 14 31 5 7 7 15 3 18 -3 4 -1 7 5 7 6 0
9 9 7 20 -2 11 1 20 7 20 5 0 8 7 4 15 -3 8 -1 15 4 15 5 0 7 9 5 20 -2 11 -1
20 3 20 4 0 9 8 10 18 2 22 10 57 12 57 1 0 4 11 6 25 2 14 6 39 9 55 3 17 7
46 10 65 2 19 4 36 5 38 2 1 3 5 4 10 1 4 4 12 7 17 4 6 3 19 -1 30 -4 11 -3
31 1 43 5 13 7 28 3 33 -3 5 0 9 6 9 6 0 8 5 4 12 -10 16 -11 78 -1 78 5 0 5
5 1 11 -3 6 0 15 7 20 8 5 9 9 4 9 -11 0 -11 102 -1 119 4 5 2 12 -2 15 -5 3
-8 18 -6 33 1 15 0 31 -3 37 -3 5 -6 38 -5 73 0 35 -2 61 -6 59 -4 -2 -7 18
-6 45 1 27 -2 52 -7 55 -5 3 -7 9 -4 14 3 5 -1 34 -9 64 -7 30 -12 57 -9 60 3
2 1 11 -3 18 -10 16 -15 35 -17 66 0 12 -4 22 -7 22 -3 0 -7 8 -8 18 -3 31 -7
47 -15 60 -5 6 -6 12 -2 12 3 0 -1 13 -10 30 -8 16 -15 31 -14 32 0 2 -4 16
-10 31 -6 16 -9 33 -5 38 3 5 0 9 -6 9 -7 0 -9 7 -6 16 3 8 2 12 -4 9 -6 -3
-10 5 -10 19 0 14 -5 26 -11 26 -5 0 -8 4 -5 8 3 5 -4 25 -14 45 -11 21 -17
37 -13 37 5 0 3 4 -4 8 -6 4 -13 16 -15 27 -1 11 -7 23 -13 27 -5 4 -10 11
-11 15 -1 12 -17 47 -23 53 -13 11 -42 70 -34 70 4 0 3 4 -2 8 -17 12 -57 72
-48 72 4 0 0 5 -9 11 -10 5 -18 17 -18 24 0 8 -4 15 -9 15 -5 0 -14 13 -21 30
-7 16 -16 28 -20 25 -4 -3 -11 6 -14 20 -4 14 -11 25 -16 25 -6 0 -10 5 -10
12 0 7 -12 23 -27 35 -14 13 -23 23 -18 23 4 0 -4 12 -18 26 -15 15 -24 30
-21 35 3 5 -2 9 -10 9 -9 0 -16 3 -16 8 0 4 -27 36 -60 71 -33 35 -60 68 -60
73 0 4 -5 8 -10 8 -6 0 -25 15 -43 33 -60 58 -157 142 -170 146 -6 2 -19 12
-28 23 -9 10 -20 18 -25 18 -5 0 -16 9 -24 19 -7 11 -17 18 -21 15 -5 -3 -17
4 -27 14 -11 11 -34 28 -53 38 -18 11 -42 27 -53 37 -11 9 -26 17 -33 17 -7 0
-13 5 -13 11 0 5 -4 8 -9 5 -5 -3 -14 1 -21 9 -7 8 -19 15 -26 15 -8 0 -14 5
-14 11 0 6 -7 9 -15 5 -8 -3 -15 -2 -15 2 0 8 -122 68 -132 64 -5 -1 -8 3 -8
9 0 5 -4 8 -9 4 -5 -3 -12 -1 -16 5 -4 6 -11 8 -16 5 -5 -4 -9 -1 -9 4 0 6 -4
11 -9 11 -5 0 -22 5 -38 11 -15 6 -30 10 -33 11 -3 0 -11 4 -17 10 -9 7 -13 7
-13 -3 0 -8 -4 -7 -12 4 -7 10 -27 19 -45 21 -18 3 -38 8 -45 12 -13 8 -36 13
-75 16 -13 1 -23 5 -23 8 0 5 -39 11 -87 13 -13 1 -23 4 -23 8 0 4 -8 8 -17 8
-10 0 -34 3 -53 6 -35 6 -80 11 -152 19 -20 2 -42 7 -49 11 -8 6 -10 4 -4 -4
6 -10 3 -11 -11 -3 -25 12 -313 13 -336 1 -12 -7 -18 -6 -18 1 0 7 -6 8 -18 1
-13 -7 -23 -6 -30 1 -7 7 -12 8 -12 2z"/>
</g>
</svg>
